<?xml version="1.0" encoding="UTF-8"?>
<svg version="1.1" xmlns="http://www.w3.org/2000/svg" width="500" height="500">
<path d="M0 0 C165 0 330 0 500 0 C500 165 500 330 500 500 C335 500 170 500 0 500 C0 335 0 170 0 0 Z " fill="#F5F3EF" transform="translate(0,0)"/>
<path d="M0 0 C13.695 -0.061875 27.39 -0.12375 41.5 -0.1875 C45.79193359 -0.21481201 50.08386719 -0.24212402 54.50585938 -0.27026367 C59.82910156 -0.28381348 59.82910156 -0.28381348 62.33703613 -0.28633118 C64.05385689 -0.29087718 65.77066931 -0.3012987 67.48742676 -0.31672668 C85.26955288 -0.46825811 100.12552971 0.85085373 115.1875 11.1875 C126.68471724 22.68471724 131.40300777 35.07550206 131.4375 51.125 C131.43078303 65.22391899 128.12777347 77.51737571 118.12109375 87.9609375 C113.91304364 91.86429514 108.02113337 97 102 97 C110.21937239 112.21200566 118.66391611 127.27751217 127.30078125 142.25585938 C128.09419474 143.63236881 128.88689231 145.00929127 129.67871094 146.38671875 C130.67433428 148.11839544 131.67298097 149.8483329 132.671875 151.578125 C134 154 134 154 134 155 C121.13 155 108.26 155 95 155 C88.58143014 143.35701281 82.23568704 131.72802394 76.38720703 119.78808594 C74.05577569 115.04084573 71.58712868 110.41705118 68.93334961 105.84106445 C68 104 68 104 68 102 C56.78 102 45.56 102 34 102 C34 119.49 34 136.98 34 155 C22.78 155 11.56 155 0 155 C0 103.85 0 52.7 0 0 Z " fill="#232323" transform="translate(134,170)"/>
<path d="M0 0 C10.61871662 9.18697955 15.52042333 18.37994277 19 32 C19 40.25 19 48.5 19 57 C-6.08 57 -31.16 57 -57 57 C-53.26717391 71.25489917 -53.26717391 71.25489917 -42.8671875 80.08984375 C-35.45322674 83.70376186 -24.36605717 83.39554339 -16.578125 80.90625 C-10.7972052 77.90400436 -6.85584475 74.21060102 -3 69 C4.56170904 73.69742532 11.25588566 79.22585134 18 85 C17.11125214 90.87634776 12.31159007 94.32210184 8 98 C-8.19157436 109.67617757 -26.31308732 110.91787386 -45.5625 108.3125 C-59.65447994 105.42594934 -72.70019444 97.89123281 -81 86 C-86.157163 77.00802349 -89.35878876 68.44591394 -90 58 C-90.04237793 57.32066406 -90.08475586 56.64132812 -90.12841797 55.94140625 C-91.0928548 37.98127141 -87.67810399 20.66278028 -75.6875 6.625 C-56.81464384 -13.10140242 -22.07328719 -17.07556179 0 0 Z " fill="#232323" transform="translate(358,218)"/>
<path d="M0 0 C6.67184298 -0.09213132 13.34145406 -0.17168182 20.01342773 -0.21972656 C22.28010563 -0.23976707 24.54673232 -0.26700711 26.81323242 -0.30175781 C30.08264856 -0.35060868 33.35137757 -0.37304512 36.62109375 -0.390625 C37.62458359 -0.41127014 38.62807343 -0.43191528 39.66197205 -0.45318604 C47.68759662 -0.45571097 53.768657 1.24992085 59.9375 6.5 C65.44619884 13.17721071 64.66259327 20.7543949 64 29 C62.56552206 34.33470715 59.75366339 38.14780197 55 41 C48.33238184 43.90826709 42.26351944 44.40920832 35.05859375 44.29296875 C34.05031021 44.28872391 33.04202667 44.28447906 32.00318909 44.28010559 C28.81434284 44.26344683 25.626152 44.22581877 22.4375 44.1875 C20.26237898 44.17243661 18.08724796 44.15875112 15.91210938 44.14648438 C10.6076234 44.11614991 5.30453665 44.0574038 0 44 C0 29.48 0 14.96 0 0 Z " fill="#F2F1ED" transform="translate(167,199)"/>
<path d="M0 0 C4.35872737 2.46001306 7.69008063 5.23969576 9.625 9.9375 C10.12 13.4025 10.12 13.4025 10.625 16.9375 C-3.565 16.9375 -17.755 16.9375 -32.375 16.9375 C-31.42191872 10.26593102 -31.00632221 7.41976816 -26.375 2.9375 C-18.09021923 -2.98873057 -9.34322819 -4.17256926 0 0 Z " fill="#F2F0EC" transform="translate(334.375,234.0625)"/>
<path d="M0 0 C2.87029869 1.79393668 4.49131638 2.98263276 6 6 C6.53118252 10.91996928 6.75105553 14.77327597 4.125 19.0625 C0.59023496 22.28537401 -2.09174402 22.39288048 -6.73828125 22.35546875 C-10.35701199 21.78672178 -11.88030223 19.84834388 -14 17 C-15.20643566 13.38069302 -15.32268559 10.80768995 -15 7 C-11.12075728 0.0173631 -7.68264172 -0.99516085 0 0 Z " fill="#2E2E2E" transform="translate(199,330)"/>
<path d="M0 0 C2.31 0 4.62 0 7 0 C9.64 4.62 12.28 9.24 15 14 C15.33 9.38 15.66 4.76 16 0 C17.32 0 18.64 0 20 0 C20 7.26 20 14.52 20 22 C18.02 22 16.04 22 14 22 C12.18103004 19.78560178 10.94963415 17.97917909 9.625 15.5 C9.27050781 14.87996094 8.91601562 14.25992187 8.55078125 13.62109375 C7.68038396 12.09201743 6.83744876 10.54736725 6 9 C5.67 13.29 5.34 17.58 5 22 C3.35 22 1.7 22 0 22 C0 14.74 0 7.48 0 0 Z " fill="#343434" transform="translate(143,330)"/>
<path d="M0 0 C5.28 0 10.56 0 16 0 C14.99853326 5.00733368 13.78277681 7.20265571 10.9375 11.3125 C10.20402344 12.38113281 9.47054687 13.44976562 8.71484375 14.55078125 C8.14894531 15.35902344 7.58304688 16.16726563 7 17 C9.97 17.33 12.94 17.66 16 18 C16 19.32 16 20.64 16 22 C10.72 22 5.44 22 0 22 C1.00146674 16.99266632 2.21722319 14.79734429 5.0625 10.6875 C5.79597656 9.61886719 6.52945313 8.55023438 7.28515625 7.44921875 C7.85105469 6.64097656 8.41695312 5.83273437 9 5 C6.03 4.67 3.06 4.34 0 4 C0 2.68 0 1.36 0 0 Z " fill="#2C2C2B" transform="translate(215,330)"/>
<path d="M0 0 C2.475 0.495 2.475 0.495 5 1 C6.32 5.95 7.64 10.9 9 16 C10.65 10.72 12.3 5.44 14 0 C15.65 0 17.3 0 19 0 C17.85078329 5.93761965 16.24729731 11.26114225 13.90234375 16.8359375 C13.19635681 18.52908366 12.58010012 20.25969965 12 22 C10.02 22 8.04 22 6 22 C4.9929564 18.8980736 3.99559195 15.79311902 3 12.6875 C2.71382812 11.80642578 2.42765625 10.92535156 2.1328125 10.01757812 C1.86210937 9.17001953 1.59140625 8.32246094 1.3125 7.44921875 C1.06113281 6.66893311 0.80976563 5.88864746 0.55078125 5.0847168 C0 3 0 3 0 0 Z " fill="#2D2D2D" transform="translate(165,330)"/>
<path d="M0 0 C2 2 2 2 2.265625 4.05859375 C2.26046875 4.84363281 2.2553125 5.62867188 2.25 6.4375 C2.25515625 7.21996094 2.2603125 8.00242187 2.265625 8.80859375 C2 11 2 11 0 14 C-2.9375 14.4375 -2.9375 14.4375 -6 14 C-8.83268842 11.63942631 -8.98743809 10.11933812 -9.375 6.4375 C-9 3 -9 3 -7.875 1.0625 C-5.15050101 -0.48138276 -3.07108055 -0.3267107 0 0 Z " fill="#EEECE8" transform="translate(198,334)"/>
<path d="M0 0 C1.65 0 3.3 0 5 0 C5 7.26 5 14.52 5 22 C3.35 22 1.7 22 0 22 C0 14.74 0 7.48 0 0 Z " fill="#313131" transform="translate(208,330)"/>
<path d="M0 0 C1.65 0 3.3 0 5 0 C5 7.26 5 14.52 5 22 C3.35 22 1.7 22 0 22 C0 14.74 0 7.48 0 0 Z " fill="#313131" transform="translate(135,330)"/>
</svg>
